<svg width="400" height="216" viewBox="0 0 400 216" fill="none" xmlns="http://www.w3.org/2000/svg">
<g clip-path="url(#clip0_3867_29311)">
<path d="M221.261 94.5113C209.566 106.206 190.434 106.206 178.739 94.5113L157.131 72.9032C145.437 61.2087 145.437 42.0763 157.131 30.3819L178.739 8.77376C190.434 -2.92068 209.566 -2.92068 221.261 8.77376L242.869 30.3819C254.563 42.0763 254.563 61.2087 242.869 72.9032L221.261 94.5113Z" fill="#E30413"/>
<path d="M187.187 83.371C185.471 83.371 184.071 82.0246 183.995 80.309C183.962 79.4512 184.255 78.6368 184.831 78.0179C185.406 77.3881 186.199 77.0189 187.046 76.9863C188.805 76.8994 190.292 78.2785 190.369 80.0484C190.445 81.8074 189.065 83.295 187.306 83.371C187.274 83.371 187.23 83.371 187.187 83.371Z" fill="white"/>
<path d="M198.805 24.3991C197.057 24.3991 195.645 24.9529 194.516 26.0713C192.062 28.5036 190.781 33.531 190.9 40.2197C191.041 48.4721 193.007 64.651 199.489 72.9794C200.543 74.3258 201.672 75.4117 202.855 76.1826C203.996 76.9427 205.277 77.681 207.286 77.681C207.828 77.681 208.415 77.6268 209.023 77.5182C212.747 76.6278 217.406 72.4799 220.869 66.9747C221.401 66.1386 222.303 65.6283 223.302 65.6283C223.845 65.6283 224.366 65.7803 224.822 66.0735C225.473 66.4861 225.919 67.1159 226.092 67.8651C226.266 68.6143 226.136 69.3744 225.723 70.0259C221.336 76.997 215.549 81.8941 210.25 83.1211C210.228 83.1319 210.174 83.1428 210.12 83.1537C209.142 83.3274 208.187 83.4251 207.275 83.4251C203.854 83.4251 201.433 82.1221 199.717 80.982C198.013 79.8527 196.427 78.3543 194.994 76.5192C185.862 64.7922 185.232 42.804 185.2 40.3283C185.102 34.4757 185.938 26.5491 190.509 22.0103C192.735 19.7952 195.537 18.6768 198.816 18.6768H199.348C202.638 18.6768 205.44 19.7952 207.666 22.0103C212.237 26.5491 213.073 34.4757 212.975 40.3283C212.867 46.4307 211.759 58.2337 205.429 68.8206C204.918 69.6784 203.974 70.2105 202.964 70.2105C202.443 70.2105 201.943 70.0693 201.498 69.8087C200.141 69.0052 199.696 67.2353 200.51 65.878C204.94 58.4726 207.068 50.318 207.242 40.2306C207.362 33.5418 206.069 28.5144 203.615 26.0822C202.475 24.9529 201.075 24.41 199.326 24.41H198.805V24.3991Z" fill="white"/>
<path d="M56.1162 127.532C41.87 127.532 33.3462 136.327 33.3462 147.197C33.3462 158.066 41.8809 166.85 56.1162 166.85C70.3623 166.85 78.9187 158.066 78.9187 147.197C78.9078 136.327 70.3623 127.532 56.1162 127.532ZM56.1162 162.648C49.2863 162.648 44.096 155.721 44.096 147.208C44.096 138.684 49.2863 131.778 56.1162 131.778C62.9461 131.778 68.1364 138.684 68.1364 147.208C68.1364 155.721 62.9461 162.648 56.1162 162.648Z" fill="#ED1C24"/>
<path d="M80.8403 133.331H95.8466V165.232H107.15V133.331H119.8V128.987H80.8403V133.331Z" fill="#ED1C24"/>
<path d="M123.937 133.331H136.576V165.232H147.88V133.331H162.886V128.987H123.937V133.331Z" fill="#ED1C24"/>
<path d="M10.8475 158.739V128.987H0V160.922C0 163.3 1.93279 165.243 4.32162 165.243H32.043V160.9H13.0192C11.8139 160.9 10.8475 159.934 10.8475 158.739Z" fill="#ED1C24"/>
<path d="M169.021 133.287V160.911C169.021 163.3 170.954 165.233 173.343 165.233H202.91V160.933H182.051C180.835 160.933 179.89 159.955 179.89 158.783V148.098H202.573V143.842H179.89V135.405C179.89 134.221 180.824 133.255 182.051 133.255H202.91V128.977H173.343C170.965 128.987 169.021 130.909 169.021 133.287Z" fill="#ED1C24"/>
<path d="M342.147 158.739V128.987H331.299V160.911C331.299 163.3 333.232 165.232 335.621 165.232H363.342V160.889H344.319C343.124 160.889 342.147 159.934 342.147 158.739Z" fill="#ED1C24"/>
<path d="M378.794 158.739V128.987H367.946V160.911C367.946 163.3 369.879 165.232 372.268 165.232H399.989V160.889H380.955C379.771 160.889 378.794 159.934 378.794 158.739Z" fill="#ED1C24"/>
<path d="M246.962 165.232L236.495 135.567V165.232H230.023V128.998H243.846L252.935 154.982L261.665 128.987H275.77V165.232H264.52V135.459L254.151 165.232H246.962Z" fill="#ED1C24"/>
<path d="M315.175 165.233L311.613 157.968H291.71L288.181 165.233H281.058L299.788 128.977H308.345L326.185 165.233H315.175ZM293.751 153.755H309.572L301.623 137.044L293.751 153.755Z" fill="#ED1C24"/>
<path d="M81.1553 194.277H84.6082L86.5953 205.309L87.7137 212.107H87.8332C88.2892 209.827 88.7887 207.557 89.2773 205.309L92.0136 194.277H94.9562L97.7251 205.309C98.2137 207.525 98.6807 209.805 99.1693 212.107H99.3104C99.6579 209.805 100.027 207.525 100.375 205.309L102.394 194.277H105.597L101.417 215.484H97.2908L94.435 203.702C94.0659 202.03 93.7401 200.445 93.4578 198.838H93.3166C93.0235 200.456 92.6868 202.041 92.3394 203.702L89.5488 215.484H85.5203L81.1553 194.277Z" fill="#374043"/>
<path d="M108.377 207.59C108.377 202.433 111.895 199.24 115.609 199.24C119.811 199.24 122.058 202.27 122.058 206.754C122.058 207.384 122.004 208.046 121.917 208.426H111.634C111.895 211.456 113.795 213.269 116.532 213.269C117.943 213.269 119.159 212.835 120.31 212.086L121.461 214.192C119.995 215.169 118.171 215.864 116.108 215.864C111.808 215.854 108.377 212.802 108.377 207.59ZM119.214 206.146C119.214 203.41 117.976 201.825 115.674 201.825C113.687 201.825 111.928 203.356 111.613 206.146H119.214Z" fill="#374043"/>
<path d="M124.828 213.671L126.38 211.543C127.792 212.661 129.171 213.356 130.876 213.356C132.776 213.356 133.666 212.433 133.666 211.228C133.666 209.784 131.886 209.154 130.148 208.492C128.042 207.688 125.62 206.559 125.62 203.877C125.62 201.227 127.749 199.24 131.234 199.24C133.362 199.24 135.1 200.109 136.392 201.108L134.839 203.149C133.742 202.346 132.624 201.77 131.299 201.77C129.573 201.77 128.769 202.639 128.769 203.725C128.769 205.082 130.409 205.603 132.135 206.233C134.35 207.069 136.804 208.046 136.804 211.043C136.804 213.693 134.698 215.854 130.789 215.854C128.606 215.854 126.359 214.931 124.828 213.671Z" fill="#374043"/>
<path d="M142.092 210.294V202.28H139.791V199.805L142.234 199.631L142.603 195.255H145.393V199.631H149.509V202.28H145.393V210.315C145.393 212.216 146.056 213.193 147.695 213.193C148.238 213.193 148.933 213.019 149.389 212.824L149.997 215.278C149.107 215.571 148.032 215.853 146.881 215.853C143.33 215.853 142.092 213.638 142.092 210.294Z" fill="#374043"/>
<path d="M163.494 194.277H166.838V212.661H175.797V215.484H163.494V194.277Z" fill="#374043"/>
<path d="M179.054 211.271C179.054 207.873 181.932 206.114 188.534 205.397C188.501 203.551 187.839 201.944 185.504 201.944C183.832 201.944 182.279 202.693 180.922 203.562L179.684 201.314C181.324 200.283 183.55 199.24 186.08 199.24C190.032 199.24 191.845 201.749 191.845 205.951V215.484H189.142L188.848 213.671H188.762C187.317 214.909 185.624 215.864 183.723 215.864C180.987 215.854 179.054 214.073 179.054 211.271ZM188.534 211.391V207.503C183.843 208.079 182.257 209.262 182.257 211.043C182.257 212.596 183.322 213.237 184.733 213.237C186.112 213.237 187.231 212.574 188.534 211.391Z" fill="#374043"/>
<path d="M197.839 192.519H201.064V207.329H201.151L207.373 199.642H211.032L205.647 206.07L211.64 215.495H208.035L203.746 208.317L201.064 211.401V215.495H197.839V192.519Z" fill="#374043"/>
<path d="M213.312 207.59C213.312 202.433 216.831 199.24 220.544 199.24C224.746 199.24 226.994 202.27 226.994 206.754C226.994 207.384 226.94 208.046 226.853 208.426H216.57C216.831 211.456 218.731 213.269 221.467 213.269C222.879 213.269 224.095 212.835 225.246 212.086L226.397 214.192C224.931 215.169 223.107 215.864 221.044 215.864C216.744 215.854 213.312 212.802 213.312 207.59ZM224.138 206.146C224.138 203.41 222.9 201.825 220.598 201.825C218.611 201.825 216.852 203.356 216.537 206.146H224.138Z" fill="#374043"/>
<path d="M238.927 194.277H242.272V202.921H251.349V194.277H254.694V215.484H251.349V205.831H242.272V215.484H238.927V194.277Z" fill="#374043"/>
<path d="M259.753 211.271C259.753 207.873 262.631 206.114 269.233 205.397C269.2 203.551 268.538 201.944 266.203 201.944C264.531 201.944 262.978 202.693 261.621 203.562L260.383 201.314C262.023 200.283 264.249 199.24 266.779 199.24C270.731 199.24 272.545 201.749 272.545 205.951V215.484H269.841L269.548 213.671H269.461C268.017 214.909 266.323 215.864 264.423 215.864C261.686 215.854 259.753 214.073 259.753 211.271ZM269.233 211.391V207.503C264.542 208.079 262.957 209.262 262.957 211.043C262.957 212.596 264.021 213.237 265.432 213.237C266.811 213.237 267.93 212.574 269.233 211.391Z" fill="#374043"/>
<path d="M277.963 199.642H280.667L280.927 201.835H281.014C282.48 200.424 284.098 199.24 286.259 199.24C289.625 199.24 291.123 201.488 291.123 205.516V215.484H287.812V205.918C287.812 203.182 287.008 202.085 285.13 202.085C283.664 202.085 282.654 202.834 281.242 204.246V215.484H277.952V199.642H277.963Z" fill="#374043"/>
<path d="M295.542 207.59C295.542 202.291 299.082 199.24 303.002 199.24C306.922 199.24 310.462 202.291 310.462 207.59C310.462 212.835 306.922 215.864 303.002 215.864C299.082 215.854 295.542 212.835 295.542 207.59ZM307.063 207.59C307.063 204.224 305.51 201.977 303.002 201.977C300.526 201.977 298.974 204.224 298.974 207.59C298.974 210.935 300.526 213.15 303.002 213.15C305.51 213.15 307.063 210.935 307.063 207.59Z" fill="#374043"/>
<path d="M314.61 194.711C314.61 193.528 315.5 192.746 316.716 192.746C317.933 192.746 318.845 193.528 318.845 194.711C318.845 195.862 317.922 196.666 316.716 196.666C315.511 196.666 314.61 195.862 314.61 194.711ZM315.066 199.641H318.356V215.483H315.066V199.641Z" fill="#374043"/>
</g>
<defs>
<clipPath id="clip0_3867_29311">
<rect width="400" height="215.853" fill="white"/>
</clipPath>
</defs>
</svg>
