<svg width="138" height="32" viewBox="0 0 138 32" fill="none" xmlns="http://www.w3.org/2000/svg">
<g clip-path="url(#clip0_3156_16724)">
<path d="M98.099 18.1591C97.7153 18.1591 97.394 18.2705 97.0366 17.3623L94.6068 11.201V18.1591H92.9214V9.54834C92.9214 9.10567 93.2001 8.76465 93.7969 8.76465H95.6135C96.1971 8.76465 96.607 9.10567 96.7677 9.54834L98.7449 14.8997L100.866 9.54834C101.037 9.10567 101.424 8.76465 102.008 8.76465H103.972C104.555 8.76465 104.834 9.10567 104.834 9.54834V18.1591H101.981V11.037L99.4204 17.4639C99.1548 18.1951 98.7974 18.1591 98.4662 18.1591H98.0957H98.099Z" fill="white"/>
<path d="M115.274 18.1591L114.32 16.2769H108.907L107.939 18.1591H106.08L110.845 9.38438C111.031 9.02041 111.402 8.76465 111.854 8.76465H112.809C113.248 8.76465 113.645 9.01713 113.832 9.38438L118.265 18.1591H115.278H115.274ZM109.477 15.1653H113.75L112.13 11.9584C111.995 11.7191 111.851 11.4928 111.625 11.4928C111.372 11.4928 111.202 11.7453 111.107 11.9584L109.477 15.1653Z" fill="white"/>
<path d="M122.531 16.3786C122.531 16.7589 122.623 17.0245 123.102 17.0245H127.932V18.1624H120.898C120.127 18.1624 119.678 17.759 119.678 16.9131V8.77124H122.531V16.3851V16.3786Z" fill="white"/>
<path d="M132.266 16.3786C132.266 16.7589 132.358 17.0245 132.837 17.0245H137.667V18.1624H130.633C129.863 18.1624 129.414 17.759 129.414 16.9131V8.77124H132.266V16.3851V16.3786Z" fill="white"/>
<path d="M19.0054 24.6385C15.9559 27.688 10.9685 27.688 7.91902 24.6385L2.28566 19.0052C-0.763838 15.9557 -0.763838 10.9683 2.28566 7.91878L7.91902 2.28541C10.9685 -0.764082 15.9559 -0.764082 19.0054 2.28541L24.6388 7.91878C27.6883 10.9683 27.6883 15.9557 24.6388 19.0052L19.0054 24.6385Z" fill="white"/>
<path d="M10.1228 21.7366C9.67353 21.7366 9.30956 21.3858 9.28989 20.9398C9.28005 20.7168 9.35874 20.5037 9.50958 20.3397C9.66041 20.1758 9.86699 20.0807 10.0867 20.0709C10.5458 20.0479 10.9327 20.4086 10.9524 20.8677C10.972 21.3267 10.6146 21.7137 10.1555 21.7333C10.1424 21.7333 10.1326 21.7333 10.1195 21.7333L10.1228 21.7366Z" fill="#393734"/>
<path d="M13.1525 6.36134C12.6967 6.36134 12.3295 6.50562 12.0344 6.79745C11.395 7.43358 11.0605 8.74191 11.09 10.4864C11.1261 12.6374 11.6376 16.8542 13.3296 19.0282C13.605 19.3791 13.9001 19.6611 14.2051 19.8644C14.5035 20.0611 14.8379 20.2546 15.3593 20.2546C15.5003 20.2546 15.6511 20.2415 15.8118 20.2119C16.7824 19.9791 17.9956 18.9003 18.9006 17.4641C19.0384 17.2444 19.2745 17.1133 19.5335 17.1133C19.6745 17.1133 19.8122 17.1526 19.9303 17.228C20.1008 17.333 20.2155 17.5002 20.2614 17.6937C20.3073 17.8871 20.2713 18.0871 20.1663 18.2576C19.0252 20.0742 17.5169 21.3498 16.1299 21.6711C16.1266 21.6711 16.1102 21.6777 16.0938 21.6777C15.8413 21.7236 15.5888 21.7465 15.3527 21.7465C14.4608 21.7465 13.8313 21.4055 13.382 21.1104C12.9394 20.8153 12.5229 20.4251 12.1491 19.9463C9.76856 16.887 9.60461 11.1553 9.59477 10.5126C9.56854 8.98784 9.78824 6.91878 10.9818 5.73833C11.5622 5.16122 12.2934 4.86938 13.146 4.86938H13.2837C14.1428 4.86938 14.8707 5.16122 15.4511 5.73833C16.6414 6.92205 16.8611 8.98784 16.8381 10.5126C16.8119 12.1029 16.5201 15.1819 14.8707 17.9396C14.7363 18.1626 14.4904 18.3035 14.228 18.3035C14.0936 18.3035 13.9624 18.2675 13.8444 18.1986C13.4903 17.9888 13.3755 17.5297 13.5853 17.1756C14.7396 15.2442 15.297 13.1194 15.3396 10.4864C15.3691 8.74191 15.0347 7.4303 14.3953 6.79745C14.1002 6.50234 13.7329 6.36134 13.2771 6.36134H13.146H13.1525Z" fill="#393734"/>
<path d="M48.1988 8.3877C44.5066 8.3877 42.2998 10.6699 42.2998 13.4866C42.2998 16.3033 44.5066 18.5855 48.1988 18.5855C51.891 18.5855 54.1076 16.3033 54.1076 13.4866C54.1076 10.6699 51.8942 8.3877 48.1988 8.3877ZM48.1988 17.487C46.4314 17.487 45.087 15.6934 45.087 13.4833C45.087 11.2732 46.4314 9.48289 48.1988 9.48289C49.9662 9.48289 51.3138 11.2732 51.3138 13.4833C51.3138 15.6934 49.9694 17.487 48.1988 17.487Z" fill="white"/>
<path d="M54.6123 9.89288H58.4947V18.1593H61.4228V9.89288H64.7051V8.76489H54.6123V9.89288Z" fill="white"/>
<path d="M65.771 9.89288H69.0467V18.1593H71.9716V9.89288H75.8671V8.76489H65.771V9.89288Z" fill="white"/>
<path d="M36.4664 16.4706V8.76489H33.6562V17.0412C33.6562 17.6576 34.1579 18.1593 34.7777 18.1593H41.962V17.0313H37.0304C36.7254 17.0313 36.4697 16.7854 36.4697 16.4739L36.4664 16.4706Z" fill="white"/>
<path d="M77.4575 9.88283V17.0442C77.4575 17.6607 77.9625 18.1624 78.5789 18.1624H86.2355V17.0541H80.8316C80.5168 17.0541 80.2676 16.8016 80.2676 16.4933V13.7291H86.1535V12.6274H80.2676V10.437C80.2676 10.1288 80.5201 9.87955 80.8316 9.87955H86.2355V8.77124H78.5757C77.9625 8.77124 77.4575 9.26965 77.4575 9.88939V9.88283Z" fill="white"/>
<path d="M33.5508 26.3699H34.4525L34.9706 29.2489L35.2624 31.0228H35.2919C35.4133 30.4293 35.5411 29.8358 35.669 29.2489L36.3839 26.3699H37.1512L37.8725 29.2489C38.0004 29.826 38.1217 30.4195 38.2496 31.0228H38.289C38.3808 30.4227 38.4759 29.8292 38.5677 29.2489L39.0923 26.3699H39.9252L38.8366 31.9016H37.7611L37.0167 28.8291C36.9183 28.393 36.8364 27.9799 36.7609 27.5602H36.7249C36.6495 27.9799 36.5609 28.393 36.4691 28.8291L35.7412 31.9016H34.6886L33.5541 26.3699H33.5508Z" fill="white"/>
<path d="M40.6533 29.8424C40.6533 28.498 41.5714 27.6619 42.5388 27.6619C43.6372 27.6619 44.2209 28.4521 44.2209 29.6227C44.2209 29.7867 44.2045 29.9605 44.1848 30.0588H41.5026C41.5714 30.8491 42.0666 31.3213 42.7814 31.3213C43.1487 31.3213 43.4667 31.2098 43.7651 31.013L44.0668 31.5606C43.6831 31.8164 43.211 31.9967 42.6699 31.9967C41.5485 31.9967 40.6566 31.1999 40.6566 29.8391L40.6533 29.8424ZM43.4798 29.4653C43.4798 28.7505 43.1552 28.3373 42.5552 28.3373C42.0371 28.3373 41.578 28.7341 41.496 29.4653H43.4798Z" fill="white"/>
<path d="M44.9452 31.4293L45.3518 30.8719C45.719 31.1637 46.0797 31.3441 46.5257 31.3441C47.0208 31.3441 47.2536 31.1047 47.2536 30.7866C47.2536 30.4095 46.788 30.2456 46.3355 30.0718C45.7879 29.862 45.155 29.5668 45.155 28.8684C45.155 28.17 45.7125 27.6584 46.6208 27.6584C47.1782 27.6584 47.6274 27.8847 47.9652 28.147L47.5586 28.6815C47.2733 28.4716 46.9814 28.3208 46.6339 28.3208C46.1846 28.3208 45.9715 28.5471 45.9715 28.8323C45.9715 29.1865 46.4011 29.3209 46.8503 29.4849C47.4274 29.7013 48.0668 29.957 48.0668 30.7407C48.0668 31.4326 47.5192 31.9966 46.4962 31.9966C45.9256 31.9966 45.3387 31.7572 44.9419 31.426L44.9452 31.4293Z" fill="white"/>
<path d="M49.4477 30.5506V28.4619H48.8477V27.8159L49.4871 27.77L49.5854 26.6289H50.3134V27.77H51.3889V28.4619H50.3134V30.5572C50.3134 31.0523 50.4872 31.3081 50.9134 31.3081C51.0577 31.3081 51.2348 31.2622 51.3561 31.2097L51.5135 31.8491C51.2807 31.9245 51.002 31.9999 50.7003 31.9999C49.7691 31.9999 49.4444 31.4228 49.4444 30.5506H49.4477Z" fill="white"/>
<path d="M55.0317 26.3699H55.904V31.1638H58.2419V31.9016H55.0317V26.3699Z" fill="white"/>
<path d="M59.0879 30.8063C59.0879 29.921 59.8388 29.4619 61.5603 29.275C61.5537 28.793 61.3799 28.3733 60.77 28.3733C60.3339 28.3733 59.9273 28.57 59.5765 28.793L59.2551 28.2061C59.6847 27.9372 60.2618 27.665 60.9241 27.665C61.9538 27.665 62.4259 28.3176 62.4259 29.416V31.9048H61.7209L61.6455 31.4326H61.6226C61.2455 31.7573 60.8028 32.0032 60.3077 32.0032C59.5929 32.0032 59.0912 31.5376 59.0912 30.8096L59.0879 30.8063ZM61.5603 30.8359V29.8194C60.3339 29.9702 59.9208 30.2784 59.9208 30.744C59.9208 31.1506 60.1995 31.3146 60.5667 31.3146C60.934 31.3146 61.2193 31.1408 61.557 30.8326L61.5603 30.8359Z" fill="white"/>
<path d="M63.9897 25.914H64.8325V29.7767H64.8554L66.4785 27.77H67.4327L66.026 29.4455L67.5901 31.9015H66.6523L65.5309 30.0292L64.8325 30.8326V31.8982H63.9897V25.9075V25.914Z" fill="white"/>
<path d="M68.0264 29.8424C68.0264 28.498 68.9445 27.6619 69.9118 27.6619C71.0103 27.6619 71.5939 28.4521 71.5939 29.6227C71.5939 29.7867 71.5775 29.9605 71.5579 30.0588H68.8756C68.9445 30.8491 69.4396 31.3213 70.1545 31.3213C70.5217 31.3213 70.8398 31.2098 71.1382 31.013L71.4398 31.5606C71.0562 31.8164 70.584 31.9967 70.043 31.9967C68.9215 31.9967 68.0296 31.1999 68.0296 29.8391L68.0264 29.8424ZM70.8529 29.4653C70.8529 28.7505 70.5315 28.3373 69.9282 28.3373C69.4101 28.3373 68.951 28.7341 68.8691 29.4653H70.8529Z" fill="white"/>
<path d="M74.7061 26.3699H75.5783V28.6258H77.9457V26.3699H78.8179V31.9016H77.9457V29.3833H75.5783V31.9016H74.7061V26.3699Z" fill="white"/>
<path d="M80.1392 30.8063C80.1392 29.921 80.8901 29.4619 82.6115 29.275C82.605 28.793 82.4312 28.3733 81.8213 28.3733C81.3852 28.3733 80.9786 28.57 80.6277 28.793L80.3064 28.2061C80.7359 27.9372 81.3131 27.665 81.9754 27.665C83.005 27.665 83.4772 28.3176 83.4772 29.416V31.9048H82.7722L82.6968 31.4326H82.6738C82.2968 31.7573 81.8541 32.0032 81.359 32.0032C80.6441 32.0032 80.1424 31.5376 80.1424 30.8096L80.1392 30.8063ZM82.6115 30.8359V29.8194C81.3852 29.9702 80.972 30.2784 80.972 30.744C80.972 31.1506 81.2508 31.3146 81.618 31.3146C81.9853 31.3146 82.2705 31.1408 82.6083 30.8326L82.6115 30.8359Z" fill="white"/>
<path d="M84.8906 27.77H85.5989L85.6678 28.3405H85.6907C86.0743 27.9733 86.4941 27.665 87.0581 27.665C87.9368 27.665 88.327 28.252 88.327 29.3046V31.9048H87.4614V29.4095C87.4614 28.6947 87.2515 28.4094 86.7629 28.4094C86.3793 28.4094 86.117 28.6061 85.7497 28.9734V31.9048H84.8939V27.77H84.8906Z" fill="white"/>
<path d="M89.4746 29.8424C89.4746 28.4587 90.3993 27.6619 91.4224 27.6619C92.4454 27.6619 93.3701 28.4587 93.3701 29.8424C93.3701 31.2262 92.4454 32 91.4224 32C90.3993 32 89.4746 31.2098 89.4746 29.8424ZM92.4815 29.8424C92.4815 28.9636 92.0749 28.3767 91.4224 28.3767C90.7698 28.3767 90.3698 28.9636 90.3698 29.8424C90.3698 30.7212 90.7764 31.2917 91.4224 31.2917C92.0683 31.2917 92.4815 30.7146 92.4815 29.8424Z" fill="white"/>
<path d="M94.4487 26.4847C94.4487 26.1764 94.6815 25.9731 94.9963 25.9731C95.3111 25.9731 95.5538 26.1764 95.5538 26.4847C95.5538 26.7929 95.3144 26.9962 94.9963 26.9962C94.6783 26.9962 94.4487 26.7863 94.4487 26.4847ZM94.5701 27.7701H95.4259V31.9049H94.5701V27.7701Z" fill="white"/>
</g>
<defs>
<clipPath id="clip0_3156_16724">
<rect width="137.667" height="32" fill="white"/>
</clipPath>
</defs>
</svg>
